<svg width="1200" height="800" viewBox="0 0 1200 800" fill="none" xmlns="http://www.w3.org/2000/svg">
  <!-- Background -->
  <rect width="1200" height="800" rx="12" fill="#0F0F18"/>
  
  <!-- Subtle grid pattern -->
  <pattern id="grid" x="0" y="0" width="40" height="40" patternUnits="userSpaceOnUse">
    <rect width="40" height="40" fill="none"/>
    <path d="M 40 0 L 0 0 0 40" stroke="#2A2A45" stroke-width="0.5" fill="none"/>
  </pattern>
  <rect width="1200" height="800" fill="url(#grid)"/>
  
  <!-- Glow effects -->
  <circle cx="600" cy="400" r="350" fill="url(#purpleGlow)" opacity="0.1"/>
  <defs>
    <radialGradient id="purpleGlow" cx="0" cy="0" r="1" gradientUnits="userSpaceOnUse" gradientTransform="translate(600 400) rotate(90) scale(400)">
      <stop offset="0" stop-color="#A855F7"/>
      <stop offset="1" stop-color="#0F0F18" stop-opacity="0"/>
    </radialGradient>
  </defs>
  
  <!-- Top Navigation Bar -->
  <rect x="0" y="0" width="1200" height="60" fill="#151528" rx="12 12 0 0"/>
  <circle cx="30" cy="30" r="8" fill="#A855F7"/>
  <text x="50" y="35" font-family="Arial, sans-serif" font-weight="bold" font-size="16" fill="white">ZoraPredict</text>
  
  <!-- Navigation buttons -->
  <rect x="200" y="20" width="100" height="30" rx="15" fill="#242440" opacity="0.7"/>
  <text x="225" y="38" font-family="Arial, sans-serif" font-size="12" fill="white">Dashboard</text>
  
  <rect x="320" y="20" width="100" height="30" rx="15" fill="transparent" stroke="#3A3A60" stroke-width="1"/>
  <text x="348" y="38" font-family="Arial, sans-serif" font-size="12" fill="#8888AA">Predict</text>
  
  <rect x="440" y="20" width="100" height="30" rx="15" fill="transparent" stroke="#3A3A60" stroke-width="1"/>
  <text x="463" y="38" font-family="Arial, sans-serif" font-size="12" fill="#8888AA">Analytics</text>
  
  <rect x="560" y="20" width="100" height="30" rx="15" fill="transparent" stroke="#3A3A60" stroke-width="1"/>
  <text x="581" y="38" font-family="Arial, sans-serif" font-size="12" fill="#8888AA">Portfolio</text>
  
  <!-- User profile -->
  <circle cx="1140" cy="30" r="20" fill="#151528" stroke="#6D28D9" stroke-width="2"/>
  <text x="1140" y="35" font-family="Arial, sans-serif" font-size="12" fill="white" text-anchor="middle">JP</text>
  
  <!-- Left Sidebar -->
  <rect x="0" y="60" width="200" height="740" fill="#151528"/>
  
  <!-- Sidebar navigation items -->
  <rect x="20" y="100" width="160" height="40" rx="6" fill="#242440"/>
  <text x="55" y="125" font-family="Arial, sans-serif" font-size="14" fill="white">Dashboard</text>
  
  <text x="55" y="185" font-family="Arial, sans-serif" font-size="14" fill="#8888AA">Predictions</text>
  <text x="55" y="235" font-family="Arial, sans-serif" font-size="14" fill="#8888AA">Trading</text>
  <text x="55" y="285" font-family="Arial, sans-serif" font-size="14" fill="#8888AA">Alerts</text>
  <text x="55" y="335" font-family="Arial, sans-serif" font-size="14" fill="#8888AA">Analytics</text>
  <text x="55" y="385" font-family="Arial, sans-serif" font-size="14" fill="#8888AA">Settings</text>
  
  <!-- Main Content Area -->
  
  <!-- Overview Cards -->
  <rect x="220" y="80" width="230" height="120" rx="8" fill="#191932" stroke="#2A2A45" stroke-width="1"/>
  <text x="240" y="110" font-family="Arial, sans-serif" font-size="14" fill="#8888AA">Total Predictions</text>
  <text x="240" y="150" font-family="Arial, sans-serif" font-size="28" font-weight="bold" fill="white">5,248</text>
  <text x="340" y="150" font-family="Arial, sans-serif" font-size="12" fill="#4ADE80">+12.5%</text>
  
  <rect x="470" y="80" width="230" height="120" rx="8" fill="#191932" stroke="#2A2A45" stroke-width="1"/>
  <text x="490" y="110" font-family="Arial, sans-serif" font-size="14" fill="#8888AA">Accuracy Rate</text>
  <text x="490" y="150" font-family="Arial, sans-serif" font-size="28" font-weight="bold" fill="white">98.2%</text>
  <text x="590" y="150" font-family="Arial, sans-serif" font-size="12" fill="#4ADE80">+2.3%</text>
  
  <rect x="720" y="80" width="230" height="120" rx="8" fill="#191932" stroke="#2A2A45" stroke-width="1"/>
  <text x="740" y="110" font-family="Arial, sans-serif" font-size="14" fill="#8888AA">Average ROI</text>
  <text x="740" y="150" font-family="Arial, sans-serif" font-size="28" font-weight="bold" fill="white">2.7x</text>
  <text x="820" y="150" font-family="Arial, sans-serif" font-size="12" fill="#4ADE80">+0.4x</text>
  
  <rect x="970" y="80" width="210" height="120" rx="8" fill="#191932" stroke="#2A2A45" stroke-width="1"/>
  <text x="990" y="110" font-family="Arial, sans-serif" font-size="14" fill="#8888AA">Active Signals</text>
  <text x="990" y="150" font-family="Arial, sans-serif" font-size="28" font-weight="bold" fill="white">28</text>
  <circle cx="1050" cy="140" r="8" fill="#4ADE80"/>
  <text x="1070" y="145" font-family="Arial, sans-serif" font-size="12" fill="#8888AA">Live</text>
  
  <!-- Main Chart -->
  <rect x="220" y="220" width="700" height="320" rx="8" fill="#191932" stroke="#2A2A45" stroke-width="1"/>
  <text x="240" y="250" font-family="Arial, sans-serif" font-size="16" font-weight="bold" fill="white">Virality Predictions</text>
  <text x="240" y="275" font-family="Arial, sans-serif" font-size="12" fill="#8888AA">Last 7 days</text>
  
  <!-- Chart visualization -->
  <defs>
    <linearGradient id="chartGradient" x1="0" y1="0" x2="0" y2="1">
      <stop offset="0%" stop-color="#A855F7" stop-opacity="0.2"/>
      <stop offset="100%" stop-color="#A855F7" stop-opacity="0"/>
    </linearGradient>
  </defs>
  
  <!-- Chart grid lines -->
  <line x1="240" y1="340" x2="900" y2="340" stroke="#2A2A45" stroke-width="1" stroke-dasharray="5,5"/>
  <line x1="240" y1="390" x2="900" y2="390" stroke="#2A2A45" stroke-width="1" stroke-dasharray="5,5"/>
  <line x1="240" y1="440" x2="900" y2="440" stroke="#2A2A45" stroke-width="1" stroke-dasharray="5,5"/>
  <line x1="240" y1="490" x2="900" y2="490" stroke="#2A2A45" stroke-width="1" stroke-dasharray="5,5"/>
  
  <!-- Chart labels -->
  <text x="230" y="340" font-family="Arial, sans-serif" font-size="10" fill="#8888AA" text-anchor="end">100</text>
  <text x="230" y="390" font-family="Arial, sans-serif" font-size="10" fill="#8888AA" text-anchor="end">75</text>
  <text x="230" y="440" font-family="Arial, sans-serif" font-size="10" fill="#8888AA" text-anchor="end">50</text>
  <text x="230" y="490" font-family="Arial, sans-serif" font-size="10" fill="#8888AA" text-anchor="end">25</text>
  
  <!-- X-axis labels -->
  <text x="240" y="520" font-family="Arial, sans-serif" font-size="10" fill="#8888AA">Mon</text>
  <text x="335" y="520" font-family="Arial, sans-serif" font-size="10" fill="#8888AA">Tue</text>
  <text x="430" y="520" font-family="Arial, sans-serif" font-size="10" fill="#8888AA">Wed</text>
  <text x="525" y="520" font-family="Arial, sans-serif" font-size="10" fill="#8888AA">Thu</text>
  <text x="620" y="520" font-family="Arial, sans-serif" font-size="10" fill="#8888AA">Fri</text>
  <text x="715" y="520" font-family="Arial, sans-serif" font-size="10" fill="#8888AA">Sat</text>
  <text x="810" y="520" font-family="Arial, sans-serif" font-size="10" fill="#8888AA">Sun</text>
  
  <!-- Chart line -->
  <path d="M 240 440 L 335 420 L 430 380 L 525 330 L 620 360 L 715 320 L 810 290" 
        stroke="#A855F7" stroke-width="3" fill="none"/>
  
  <!-- Chart points -->
  <circle cx="240" cy="440" r="5" fill="#A855F7"/>
  <circle cx="335" cy="420" r="5" fill="#A855F7"/>
  <circle cx="430" cy="380" r="5" fill="#A855F7"/>
  <circle cx="525" cy="330" r="5" fill="#A855F7"/>
  <circle cx="620" cy="360" r="5" fill="#A855F7"/>
  <circle cx="715" cy="320" r="5" fill="#A855F7"/>
  <circle cx="810" cy="290" r="5" fill="#A855F7"/>
  
  <!-- Chart area fill -->
  <path d="M 240 440 L 335 420 L 430 380 L 525 330 L 620 360 L 715 320 L 810 290 L 810 540 L 240 540 Z" 
        fill="url(#chartGradient)"/>
  
  <!-- Prediction details panels -->
  <rect x="940" y="220" width="240" height="150" rx="8" fill="#191932" stroke="#2A2A45" stroke-width="1"/>
  <text x="960" y="250" font-family="Arial, sans-serif" font-size="16" font-weight="bold" fill="white">Current Prediction</text>
  
  <text x="960" y="290" font-family="Arial, sans-serif" font-size="14" fill="#8888AA">Virality Score</text>
  <text x="1090" y="290" font-family="Arial, sans-serif" font-size="14" font-weight="bold" fill="white">87.6%</text>
  
  <text x="960" y="320" font-family="Arial, sans-serif" font-size="14" fill="#8888AA">Confidence</text>
  <text x="1090" y="320" font-family="Arial, sans-serif" font-size="14" font-weight="bold" fill="white">98.2%</text>
  
  <text x="960" y="350" font-family="Arial, sans-serif" font-size="14" fill="#8888AA">Time to Viral</text>
  <text x="1090" y="350" font-family="Arial, sans-serif" font-size="14" font-weight="bold" fill="#F472B6">4.2h</text>
  
  <!-- Neural processing visualization -->
  <rect x="940" y="390" width="240" height="150" rx="8" fill="#191932" stroke="#2A2A45" stroke-width="1"/>
  <text x="960" y="420" font-family="Arial, sans-serif" font-size="16" font-weight="bold" fill="white">Neural Processing</text>
  
  <!-- Neural network visualization -->
  <circle cx="980" cy="465" r="6" fill="#A855F7"/>
  <circle cx="980" cy="495" r="6" fill="#A855F7"/>
  <circle cx="980" cy="525" r="6" fill="#A855F7"/>
  
  <circle cx="1030" cy="450" r="6" fill="#6366F1"/>
  <circle cx="1030" cy="480" r="6" fill="#6366F1"/>
  <circle cx="1030" cy="510" r="6" fill="#6366F1"/>
  <circle cx="1030" cy="540" r="6" fill="#6366F1"/>
  
  <circle cx="1080" cy="465" r="6" fill="#6366F1"/>
  <circle cx="1080" cy="495" r="6" fill="#6366F1"/>
  <circle cx="1080" cy="525" r="6" fill="#6366F1"/>
  
  <circle cx="1130" cy="480" r="6" fill="#F472B6"/>
  <circle cx="1130" cy="510" r="6" fill="#F472B6"/>
  
  <!-- Neural connections -->
  <line x1="980" y1="465" x2="1030" y2="450" stroke="#A855F7" stroke-width="1" opacity="0.5"/>
  <line x1="980" y1="465" x2="1030" y2="480" stroke="#A855F7" stroke-width="1" opacity="0.5"/>
  <line x1="980" y1="465" x2="1030" y2="510" stroke="#A855F7" stroke-width="1" opacity="0.5"/>
  
  <line x1="980" y1="495" x2="1030" y2="450" stroke="#A855F7" stroke-width="1" opacity="0.5"/>
  <line x1="980" y1="495" x2="1030" y2="480" stroke="#A855F7" stroke-width="1" opacity="0.5"/>
  <line x1="980" y1="495" x2="1030" y2="510" stroke="#A855F7" stroke-width="1" opacity="0.5"/>
  <line x1="980" y1="495" x2="1030" y2="540" stroke="#A855F7" stroke-width="1" opacity="0.5"/>
  
  <line x1="980" y1="525" x2="1030" y2="480" stroke="#A855F7" stroke-width="1" opacity="0.5"/>
  <line x1="980" y1="525" x2="1030" y2="510" stroke="#A855F7" stroke-width="1" opacity="0.5"/>
  <line x1="980" y1="525" x2="1030" y2="540" stroke="#A855F7" stroke-width="1" opacity="0.5"/>
  
  <line x1="1030" y1="450" x2="1080" y2="465" stroke="#6366F1" stroke-width="1" opacity="0.5"/>
  <line x1="1030" y1="450" x2="1080" y2="495" stroke="#6366F1" stroke-width="1" opacity="0.5"/>
  
  <line x1="1030" y1="480" x2="1080" y2="465" stroke="#6366F1" stroke-width="1" opacity="0.5"/>
  <line x1="1030" y1="480" x2="1080" y2="495" stroke="#6366F1" stroke-width="1" opacity="0.5"/>
  <line x1="1030" y1="480" x2="1080" y2="525" stroke="#6366F1" stroke-width="1" opacity="0.5"/>
  
  <line x1="1030" y1="510" x2="1080" y2="495" stroke="#6366F1" stroke-width="1" opacity="0.5"/>
  <line x1="1030" y1="510" x2="1080" y2="525" stroke="#6366F1" stroke-width="1" opacity="0.5"/>
  
  <line x1="1030" y1="540" x2="1080" y2="525" stroke="#6366F1" stroke-width="1" opacity="0.5"/>
  
  <line x1="1080" y1="465" x2="1130" y2="480" stroke="#6366F1" stroke-width="1" opacity="0.5"/>
  <line x1="1080" y1="495" x2="1130" y2="480" stroke="#6366F1" stroke-width="1" opacity="0.5"/>
  <line x1="1080" y1="495" x2="1130" y2="510" stroke="#6366F1" stroke-width="1" opacity="0.5"/>
  <line x1="1080" y1="525" x2="1130" y2="510" stroke="#6366F1" stroke-width="1" opacity="0.5"/>
  
  <!-- Recent Predictions Table -->
  <rect x="220" y="560" width="960" height="220" rx="8" fill="#191932" stroke="#2A2A45" stroke-width="1"/>
  <text x="240" y="590" font-family="Arial, sans-serif" font-size="16" font-weight="bold" fill="white">Recent Predictions</text>
  
  <!-- Table Headers -->
  <rect x="240" y="610" width="940" height="30" fill="#242440" rx="4"/>
  <text x="260" y="630" font-family="Arial, sans-serif" font-size="12" font-weight="bold" fill="white">Content ID</text>
  <text x="420" y="630" font-family="Arial, sans-serif" font-size="12" font-weight="bold" fill="white">Type</text>
  <text x="520" y="630" font-family="Arial, sans-serif" font-size="12" font-weight="bold" fill="white">Prediction</text>
  <text x="650" y="630" font-family="Arial, sans-serif" font-size="12" font-weight="bold" fill="white">Confidence</text>
  <text x="780" y="630" font-family="Arial, sans-serif" font-size="12" font-weight="bold" fill="white">Time to Viral</text>
  <text x="920" y="630" font-family="Arial, sans-serif" font-size="12" font-weight="bold" fill="white">Status</text>
  <text x="1050" y="630" font-family="Arial, sans-serif" font-size="12" font-weight="bold" fill="white">Action</text>
  
  <!-- Table Row 1 -->
  <line x1="240" y1="655" x2="1160" y2="655" stroke="#2A2A45" stroke-width="1"/>
  <text x="260" y="675" font-family="Arial, sans-serif" font-size="12" fill="white">ZOR-8291</text>
  <text x="420" y="675" font-family="Arial, sans-serif" font-size="12" fill="white">Image</text>
  <text x="520" y="675" font-family="Arial, sans-serif" font-size="12" fill="#4ADE80">87.6%</text>
  <text x="650" y="675" font-family="Arial, sans-serif" font-size="12" fill="white">98.2%</text>
  <text x="780" y="675" font-family="Arial, sans-serif" font-size="12" fill="#F472B6">4.2h</text>
  <rect x="920" y="665" width="80" height="20" rx="10" fill="#4ADE80" opacity="0.2"/>
  <text x="935" y="678" font-family="Arial, sans-serif" font-size="11" fill="#4ADE80">Active</text>
  <rect x="1050" y="665" width="80" height="20" rx="10" fill="#6366F1" opacity="0.2"/>
  <text x="1065" y="678" font-family="Arial, sans-serif" font-size="11" fill="#6366F1">Trade</text>
  
  <!-- Table Row 2 -->
  <line x1="240" y1="695" x2="1160" y2="695" stroke="#2A2A45" stroke-width="1"/>
  <text x="260" y="715" font-family="Arial, sans-serif" font-size="12" fill="white">ZOR-8290</text>
  <text x="420" y="715" font-family="Arial, sans-serif" font-size="12" fill="white">Video</text>
  <text x="520" y="715" font-family="Arial, sans-serif" font-size="12" fill="#4ADE80">92.3%</text>
  <text x="650" y="715" font-family="Arial, sans-serif" font-size="12" fill="white">97.5%</text>
  <text x="780" y="715" font-family="Arial, sans-serif" font-size="12" fill="#F472B6">2.8h</text>
  <rect x="920" y="705" width="80" height="20" rx="10" fill="#4ADE80" opacity="0.2"/>
  <text x="935" y="718" font-family="Arial, sans-serif" font-size="11" fill="#4ADE80">Active</text>
  <rect x="1050" y="705" width="80" height="20" rx="10" fill="#6366F1" opacity="0.2"/>
  <text x="1065" y="718" font-family="Arial, sans-serif" font-size="11" fill="#6366F1">Trade</text>
  
  <!-- Table Row 3 -->
  <line x1="240" y1="735" x2="1160" y2="735" stroke="#2A2A45" stroke-width="1"/>
  <text x="260" y="755" font-family="Arial, sans-serif" font-size="12" fill="white">ZOR-8289</text>
  <text x="420" y="755" font-family="Arial, sans-serif" font-size="12" fill="white">Collection</text>
  <text x="520" y="755" font-family="Arial, sans-serif" font-size="12" fill="#F472B6">68.5%</text>
  <text x="650" y="755" font-family="Arial, sans-serif" font-size="12" fill="white">85.1%</text>
  <text x="780" y="755" font-family="Arial, sans-serif" font-size="12" fill="#F472B6">8.4h</text>
  <rect x="920" y="745" width="80" height="20" rx="10" fill="#F97316" opacity="0.2"/>
  <text x="928" y="758" font-family="Arial, sans-serif" font-size="11" fill="#F97316">Watching</text>
  <rect x="1050" y="745" width="80" height="20" rx="10" fill="#6366F1" opacity="0.2"/>
  <text x="1065" y="758" font-family="Arial, sans-serif" font-size="11" fill="#6366F1">Trade</text>
  
  <!-- Status badge -->
  <rect x="940" y="30" width="120" height="24" rx="12" fill="#4ADE80" opacity="0.2"/>
  <circle cx="952" cy="42" r="5" fill="#4ADE80"/>
  <text x="968" y="46" font-family="Arial, sans-serif" font-size="12" fill="#4ADE80">System Active</text>
  
  <!-- AI Processing notification -->
  <rect x="780" y="30" width="140" height="24" rx="12" fill="#A855F7" opacity="0.2"/>
  <text x="800" y="46" font-family="Arial, sans-serif" font-size="12" fill="#A855F7">AI Processing</text>
  <text x="888" y="46" font-family="Arial, sans-serif" font-size="12" fill="#A855F7">●●●</text>
</svg>
